<?xml version="1.0" encoding="utf-8"?>
<!-- Generator: Adobe Illustrator 23.0.6, SVG Export Plug-In . SVG Version: 6.00 Build 0)  -->
<svg version="1.1" id="Layer_1" xmlns="http://www.w3.org/2000/svg" xmlns:xlink="http://www.w3.org/1999/xlink" x="0px" y="0px"
	 viewBox="0 0 894 258" style="enable-background:new 0 0 894 258;" xml:space="preserve">
<style type="text/css">
	.st0{fill:#232323;}
	.st1{clip-path:url(#SVGID_2_);}
	.st2{fill:url(#SVGID_3_);}
	.st3{opacity:0.3;fill:url(#SVGID_4_);}
	.st4{opacity:0.3;fill:url(#SVGID_5_);}
	.st5{fill:#FFFFFF;}
	.st6{opacity:0.62;fill:url(#SVGID_6_);}
	.st7{opacity:0.62;fill:url(#SVGID_7_);}
	.st8{opacity:0.62;fill:url(#SVGID_8_);}
	.st9{opacity:0.62;fill:url(#SVGID_9_);}
</style>
<g>
	<g>
		<path class="st0" d="M294.64,199.08c-1.08-1.04-1.62-2.3-1.63-3.79l0.93-105.24c-0.04-1.63,0.49-2.93,1.61-3.9
			c1.11-0.97,2.44-1.45,4-1.45h19.81c1.55,0,2.83,0.52,3.83,1.56c1,1.04,1.5,2.31,1.51,3.79L324,195.29
			c0.01,1.49-0.5,2.75-1.52,3.79c-1.02,1.04-2.31,1.56-3.86,1.56h-19.81C297.11,200.64,295.71,200.12,294.64,199.08z M294.79,64.18
			c-1.08-1.04-1.62-2.3-1.63-3.79l0.23-16.28c-0.17-1.48,0.29-2.79,1.38-3.9c1.08-1.11,2.47-1.67,4.18-1.67h21.44
			c1.55,0,2.91,0.52,4.06,1.56c1.16,1.04,1.75,2.38,1.79,4.01l-0.23,16.28c0.01,1.49-0.54,2.75-1.63,3.79
			c-1.1,1.04-2.42,1.56-3.98,1.56h-21.67C297.19,65.75,295.87,65.23,294.79,64.18z"/>
		<path class="st0" d="M359.19,192.06c-8.54-7.21-14.13-16.98-16.78-29.32c-0.77-3.57-1.29-7.8-1.56-12.71
			c-0.27-4.16-0.24-9.06,0.1-14.72c0.78-15.9,5.14-28.69,13.08-38.35c7.94-9.66,19.76-14.49,35.45-14.49
			c8.39,0,15.7,1.34,21.95,4.01c6.24,2.68,11.32,6.24,15.23,10.7l0.32-49.5c-0.04-1.63,0.49-2.93,1.61-3.9
			c1.11-0.97,2.44-1.45,4-1.45h20.27c1.55,0,2.87,0.52,3.95,1.56c1.08,1.04,1.62,2.31,1.63,3.79l-1.15,147.6
			c0.01,1.49-0.5,2.75-1.52,3.79c-1.02,1.04-2.31,1.56-3.86,1.56h-18.87c-1.71,0-3.1-0.52-4.18-1.56c-1.08-1.04-1.62-2.3-1.63-3.79
			l0.09-8.25c-4.32,5.21-9.1,9.14-14.36,11.82c-5.25,2.68-12.23,4.01-20.92,4.01C378.67,202.87,367.73,199.27,359.19,192.06z
			 M418.39,170.43c4.86-5.57,7.47-12.22,7.83-19.96c0.24-6.09,0.26-11.82,0.04-17.17c-0.01-2.23-0.24-4.38-0.69-6.47
			c-1.28-5.94-4.03-10.81-8.26-14.6c-4.23-3.79-10-5.69-17.3-5.69c-8.54,0-14.95,2.71-19.22,8.14c-4.27,5.43-6.79,12.52-7.54,21.29
			c-0.44,5.2-0.49,9.66-0.16,13.38c0.34,4.46,0.7,7.58,1.08,9.36c2.87,13.38,10.75,20.07,23.65,20.07
			C406.67,178.79,413.53,176,418.39,170.43z"/>
		<path class="st0" d="M488.53,192.17c-9.61-7.14-15.83-17.31-18.68-30.55c-1.09-5.05-1.67-9.59-1.76-13.6
			c-0.07-1.04-0.01-4.76,0.17-11.15c0.86-16.95,6.44-30.25,16.71-39.91c10.27-9.66,23.95-14.49,41.04-14.49
			c15.38,0,27.8,3.76,37.25,11.26c9.45,7.51,15.59,17.8,18.4,30.88c1.05,4.9,1.63,10.48,1.73,16.72l-0.16,4.68
			c0.01,1.49-0.54,2.75-1.63,3.79c-1.1,1.04-2.5,1.56-4.21,1.56h-77.13l-0.08,1.78c0.11,2.67,0.42,5.2,0.93,7.58
			c1.34,6.24,4.1,11.34,8.29,15.27c4.18,3.94,9.46,5.91,15.83,5.91c8.85,0,16.12-3.42,21.8-10.26c1.36-1.63,2.46-2.64,3.31-3.01
			c0.85-0.37,2.21-0.56,4.07-0.56h20.5c1.4,0,2.58,0.45,3.55,1.34c0.97,0.89,1.44,2.01,1.42,3.34c-0.32,3.57-2.73,7.73-7.22,12.49
			c-4.49,4.76-10.83,8.88-19.01,12.37c-8.18,3.49-17.63,5.24-28.35,5.24C510.4,202.87,498.14,199.3,488.53,192.17z M551.42,132.41
			l-0.1-0.45c0.01-2.82-0.3-5.72-0.94-8.7c-1.34-6.24-4.11-11.18-8.31-14.83c-4.2-3.64-9.56-5.46-16.09-5.46
			c-7.92,0-14.19,2.64-18.8,7.92c-4.62,5.28-6.91,12.3-6.89,21.07l0.1,0.45H551.42z"/>
		<path class="st0" d="M609.74,192.17c-8.37-7.14-13.88-16.87-16.53-29.21c-0.8-3.71-1.34-8.03-1.61-12.93
			c-0.27-4.16-0.24-9.06,0.1-14.72c0.9-16.05,5.29-28.87,13.18-38.46c7.88-9.59,19.82-14.38,35.82-14.38c9.01,0,16.36,1.3,22.04,3.9
			c5.69,2.6,10.59,6.28,14.72,11.04l0.05-7.36c-0.04-1.63,0.49-2.93,1.61-3.9c1.11-0.97,2.44-1.45,4-1.45h18.64
			c1.71,0,3.1,0.52,4.18,1.56c1.08,1.04,1.62,2.31,1.63,3.79l-0.7,105.24c0.04,1.64-0.5,2.94-1.61,3.9c-1.11,0.97-2.45,1.45-4,1.45
			h-18.64c-1.71,0-3.1-0.52-4.18-1.56c-1.08-1.04-1.62-2.3-1.63-3.79l0.09-8.25c-4.32,5.21-9.03,9.14-14.12,11.82
			c-5.1,2.68-11.92,4.01-20.46,4.01C628.96,202.87,618.1,199.3,609.74,192.17z M668.24,170.54c4.72-5.5,7.25-12.19,7.57-20.07
			c0.24-6.09,0.26-11.82,0.04-17.17c-0.08-2.53-0.35-4.91-0.83-7.14c-1.24-5.8-3.89-10.51-7.93-14.16
			c-4.04-3.64-9.64-5.46-16.78-5.46c-15.69,0-24.46,9.81-26.3,29.43c-0.38,4.01-0.43,8.47-0.16,13.38c0.34,4.46,0.73,7.73,1.17,9.81
			c1.34,6.24,3.78,11.08,7.31,14.49c3.53,3.42,8.71,5.13,15.55,5.13C656.73,178.79,663.51,176.04,668.24,170.54z"/>
		<path class="st0" d="M729.94,199.08c-1.08-1.04-1.62-2.3-1.63-3.79l1.39-147.6c-0.04-1.63,0.45-2.93,1.49-3.9
			c1.03-0.97,2.33-1.45,3.88-1.45h19.81c1.55,0,2.87,0.52,3.95,1.56c1.08,1.04,1.62,2.31,1.63,3.79l-1.15,147.6
			c0.01,1.49-0.5,2.75-1.52,3.79c-1.02,1.04-2.31,1.56-3.86,1.56h-19.81C732.4,200.64,731.01,200.12,729.94,199.08z"/>
		<path class="st0" d="M776.3,199.08c-1.07-1.04-1.62-2.3-1.63-3.79l0.25-12.93c-0.13-2.08,0.54-4.01,2.02-5.8l60.14-68.23h-54.06
			c-1.55,0-2.87-0.52-3.95-1.56c-1.08-1.04-1.64-2.38-1.68-4.01l0.07-12.71c-0.04-1.63,0.49-2.93,1.61-3.9
			c1.11-0.97,2.44-1.45,4-1.45h88.54c1.71,0,3.06,0.52,4.06,1.56c1,1.04,1.5,2.31,1.51,3.79l-0.06,13.82
			c0.26,1.93-0.45,3.72-2.11,5.35l-59.07,67.78h59.88c1.71,0,3.07,0.56,4.09,1.67c1.01,1.12,1.45,2.42,1.3,3.9l-0.07,12.71
			c0.04,1.64-0.46,2.94-1.49,3.9c-1.04,0.97-2.33,1.45-3.88,1.45h-95.53C778.7,200.64,777.38,200.12,776.3,199.08z"/>
	</g>
	<g>
		<defs>
			<path id="SVGID_1_" d="M78.01,13.99h98.49c23.35,0,31.81,2.43,40.35,7c8.4,4.49,15.3,11.4,19.8,19.8c4.56,8.53,7,17,7,40.35
				v98.49c0,20.54-1.88,29.56-5.44,37.24c-4.99,10.77-13.68,19.46-24.45,24.45c-7.68,3.56-16.71,5.44-37.24,5.44H78.01
				c-23.35,0-31.81-2.43-40.35-7c-8.4-4.49-15.3-11.4-19.8-19.8c-4.56-8.53-7-17-7-40.35V81.13c0-23.35,2.43-31.81,6.99-40.35
				c4.49-8.4,11.4-15.3,19.8-19.8C46.19,16.42,54.66,13.99,78.01,13.99z"/>
		</defs>
		<clipPath id="SVGID_2_">
			<use xlink:href="#SVGID_1_"  style="overflow:visible;"/>
		</clipPath>
		<g class="st1">
			<linearGradient id="SVGID_3_" gradientUnits="userSpaceOnUse" x1="130.4704" y1="264.8398" x2="130.4704" y2="-0.2293">
				<stop  offset="0" style="stop-color:#AC0E14"/>
				<stop  offset="0.0102" style="stop-color:#AE0E13"/>
				<stop  offset="0.1702" style="stop-color:#CB090C"/>
				<stop  offset="0.3402" style="stop-color:#E20507"/>
				<stop  offset="0.5231" style="stop-color:#F20203"/>
				<stop  offset="0.728" style="stop-color:#FC0101"/>
				<stop  offset="1" style="stop-color:#FF0000"/>
			</linearGradient>
			<rect x="-3.87" y="-3.48" class="st2" width="268.68" height="268.68"/>
			<linearGradient id="SVGID_4_" gradientUnits="userSpaceOnUse" x1="-71.4138" y1="-56.9411" x2="396.1231" y2="410.5959">
				<stop  offset="0" style="stop-color:#000000"/>
				<stop  offset="0.1051" style="stop-color:#000000;stop-opacity:0.8949"/>
				<stop  offset="1" style="stop-color:#000000;stop-opacity:0"/>
			</linearGradient>
			<path class="st3" d="M196.72,265.41h-72.78l-61.42-61.42l0.27-0.29c2.98,3.68,7.53,6.03,12.63,6.03l64.01,0.19
				c34.62,0,62.94-28.33,62.94-62.95v-31.44c0-15.63-5.78-29.96-15.3-41l78.21,78.21v46.97l-0.19,65.7L196.72,265.41z"/>
			<linearGradient id="SVGID_5_" gradientUnits="userSpaceOnUse" x1="69.7856" y1="104.5511" x2="184.2437" y2="219.0091">
				<stop  offset="0" style="stop-color:#000000"/>
				<stop  offset="0.1051" style="stop-color:#000000;stop-opacity:0.8949"/>
				<stop  offset="1" style="stop-color:#000000;stop-opacity:0"/>
			</linearGradient>
			<path class="st4" d="M139.21,120.49c0.91,2.15,1.41,4.52,1.41,7c0,4.57-1.69,8.74-4.49,11.93l-39.93,43.09
				c-0.23,0.26-0.38,0.59-0.38,0.96c0,0.78,0.61,1.4,1.38,1.44l39.36,0.02c18.06,0,33.62-11.23,40.07-27.04L139.21,120.49z"/>
			<g>
				<g>
					<path class="st5" d="M139.14,52.18l-62.17-0.03c-9.91,0-18.01,8.1-18.01,18.01v45.25c0,9.91,8.1,18.01,18.01,18.01h31.52
						L63.38,181.2c-3.34,3.73-4.55,7.38-4.55,11.93c0,8.98,7.28,16.27,16.27,16.27l64.04,0.19c34.64,0,62.98-28.34,62.98-62.98
						v-31.45C202.11,80.52,173.77,52.18,139.14,52.18 M178.22,141.68c0,23.79-17.98,43.25-41.76,43.25l-39.36-0.02
						c-0.76-0.05-1.38-0.67-1.38-1.44c0-0.37,0.15-0.71,0.38-0.96l39.93-43.09c2.8-3.18,4.49-7.36,4.49-11.93
						c0-9.99-8.1-18.08-18.08-18.08H83.09V76.83h53.37c23.79,0,41.76,19.46,41.76,43.25V141.68z"/>
				</g>
				<linearGradient id="SVGID_6_" gradientUnits="userSpaceOnUse" x1="64.5602" y1="64.496" x2="118.1925" y2="64.496">
					<stop  offset="0" style="stop-color:#000000"/>
					<stop  offset="0.0743" style="stop-color:#2E2E2E"/>
					<stop  offset="0.1656" style="stop-color:#5E5E5E"/>
					<stop  offset="0.2619" style="stop-color:#898989"/>
					<stop  offset="0.3616" style="stop-color:#AEAEAE"/>
					<stop  offset="0.4656" style="stop-color:#CBCBCB"/>
					<stop  offset="0.5752" style="stop-color:#E2E2E2"/>
					<stop  offset="0.6931" style="stop-color:#F2F2F2"/>
					<stop  offset="0.825" style="stop-color:#FCFCFC"/>
					<stop  offset="1" style="stop-color:#FFFFFF"/>
				</linearGradient>
				<path class="st6" d="M83.16,76.83c0,0-2.79-23.49,20.51-24.68h22.65v24.68H83.16z"/>
				
					<linearGradient id="SVGID_7_" gradientUnits="userSpaceOnUse" x1="305.4086" y1="-340.9711" x2="356.2877" y2="-340.9711" gradientTransform="matrix(0 -1 1 0 412.1084 431.6983)">
					<stop  offset="0" style="stop-color:#000000"/>
					<stop  offset="0.0743" style="stop-color:#2E2E2E"/>
					<stop  offset="0.1656" style="stop-color:#5E5E5E"/>
					<stop  offset="0.2619" style="stop-color:#898989"/>
					<stop  offset="0.3616" style="stop-color:#AEAEAE"/>
					<stop  offset="0.4656" style="stop-color:#CBCBCB"/>
					<stop  offset="0.5752" style="stop-color:#E2E2E2"/>
					<stop  offset="0.6931" style="stop-color:#F2F2F2"/>
					<stop  offset="0.825" style="stop-color:#FCFCFC"/>
					<stop  offset="1" style="stop-color:#FFFFFF"/>
				</linearGradient>
				<path class="st7" d="M83.06,109.37c0,0-22.7,2.69-23.84-19.81V67.67h23.84V109.37z"/>
				<linearGradient id="SVGID_8_" gradientUnits="userSpaceOnUse" x1="201.6809" y1="137.4224" x2="130.3879" y2="200.4604">
					<stop  offset="0" style="stop-color:#000000"/>
					<stop  offset="0.0743" style="stop-color:#2E2E2E"/>
					<stop  offset="0.1656" style="stop-color:#5E5E5E"/>
					<stop  offset="0.2619" style="stop-color:#898989"/>
					<stop  offset="0.3616" style="stop-color:#AEAEAE"/>
					<stop  offset="0.4656" style="stop-color:#CBCBCB"/>
					<stop  offset="0.5752" style="stop-color:#E2E2E2"/>
					<stop  offset="0.6931" style="stop-color:#F2F2F2"/>
					<stop  offset="0.825" style="stop-color:#FCFCFC"/>
					<stop  offset="1" style="stop-color:#FFFFFF"/>
				</linearGradient>
				<path class="st8" d="M178.17,143.9c-1.18,22.75-18.68,41.03-41.71,41.03l-9.33,0c-1.89,0.05-2.99,0-2.99,0v24.62l0.04,0
					C179.54,206.05,178.32,150.28,178.17,143.9z"/>
				<linearGradient id="SVGID_9_" gradientUnits="userSpaceOnUse" x1="144.2755" y1="104.4751" x2="109.664" y2="148.9018">
					<stop  offset="0" style="stop-color:#000000"/>
					<stop  offset="0.0626" style="stop-color:#141414"/>
					<stop  offset="0.3295" style="stop-color:#676767"/>
					<stop  offset="0.566" style="stop-color:#A8A8A8"/>
					<stop  offset="0.7634" style="stop-color:#D7D7D7"/>
					<stop  offset="0.914" style="stop-color:#F4F4F4"/>
					<stop  offset="1" style="stop-color:#FFFFFF"/>
				</linearGradient>
				<path class="st9" d="M108.49,133.42c0,0,32.6,0.29,18.84,15.41l-14.09,15.2l-30.18-3.67L108.49,133.42z"/>
			</g>
		</g>
	</g>
</g>
</svg>
